<?xml version="1.0" encoding="UTF-8"?>
<svg height="600" width="800" xmlns="http://www.w3.org/2000/svg" xmlns:xlink="http://www.w3.org/1999/xlink">
    <g id="Notes" font-family="'LucidaGrande', 'Lucida Grande', sans-serif" font-size="13">
        <rect fill="white" height="600.0" width="800.0" x="0.0" y="0.0" />
        <g font-size="13">
            <text x="18.0" y="176.0">Small</text>
            <text x="18.0" y="376.0">Medium</text>
            <text x="18.0" y="576.0">Large</text>
        </g>
        <g font-size="9">
            <text x="250.0" y="30.0">Ultralight</text>
            <text x="450.0" y="30.0">Regular</text>
            <text x="650.0" y="30.0">Black</text>
            <text id="template-version" fill="#505050" text-anchor="end" x="785.0" y="575.0">Template v.3.0</text>
            <a href="https://wangchujiang.com/#/app">
                <text fill="#505050" text-anchor="end" x="785.0" y="590.0">https://wangchujiang.com/#/app</text>
            </a>
        </g>
    </g>
    <g id="Guides" stroke="rgb(39, 170, 225)" stroke-width="0.5">
        <path id="Capline-S" d="M18,76 l800,0" />
        <path id="H-reference" d="M85,145.755 L87.685,145.755 L113.369,79.287 L114.052,79.287 L114.052,76 L112.148,76 L85,145.755 Z M95.693,121.536 L130.996,121.536 L130.263,119.313 L96.474,119.313 L95.693,121.536 Z M139.15,145.755 L141.787,145.755 L114.638,76 L113.466,76 L113.466,79.287 L139.15,145.755 Z" stroke="none" />
        <path id="Baseline-S" d="M18,146 l800,0" />
        <path id="left-margin-Ultralight-S" d="M211,56 l0,110" />
        <path id="right-margin-Ultralight-S" d="M319,56 l0,110" />
        <path id="left-margin-Regular-S" d="M411,56 l0,110" />
        <path id="right-margin-Regular-S" d="M519,56 l0,110" />
        <path id="left-margin-Black-S" d="M611,56 l0,110" />
        <path id="right-margin-Black-S" d="M719,56 l0,110" />
        <path id="Capline-M" d="M18,276 l800,0" />
        <path id="Baseline-M" d="M18,346 l800,0" />
        <path id="Capline-L" d="M18,476 l800,0" />
        <path id="Baseline-L" d="M18,546 l800,0" />
    </g>
    <g id="Symbols">
        <g id="Ultralight-S">
            <path d="M308.865,131.269 C308.008,127.767 306.732,124.382 305.064,121.186 C302.417,116.106 298.826,111.576 294.484,107.839 C292.722,106.32 290.846,104.939 288.872,103.709 C288.89,103.681 288.906,103.651 288.923,103.621 C289.828,102.058 290.736,100.497 291.641,98.932 L296.207,91.061 C296.751,90.121 296.902,89.005 296.629,87.954 C296.356,86.903 295.681,86.002 294.748,85.446 C293.985,84.995 293.097,84.799 292.215,84.888 C291.567,84.954 290.944,85.173 290.397,85.526 C289.851,85.88 289.395,86.357 289.069,86.921 L284.504,94.791 C283.599,96.355 282.691,97.916 281.785,99.481 L281.487,99.994 C281.35,99.94 281.214,99.885 281.076,99.833 C275.942,97.88 270.494,96.882 265.001,96.889 C264.846,96.889 264.692,96.889 264.537,96.891 C259.638,96.935 254.778,97.778 250.151,99.386 C249.627,99.568 249.112,99.761 248.6,99.962 L248.321,99.483 C247.416,97.92 246.508,96.358 245.603,94.794 C244.081,92.17 242.559,89.546 241.037,86.923 C240.644,86.246 240.067,85.694 239.372,85.333 C238.677,84.972 237.894,84.817 237.114,84.885 C236.494,84.937 235.893,85.13 235.358,85.449 C234.431,85.999 233.757,86.891 233.481,87.933 C233.2,88.99 233.351,90.117 233.9,91.063 L238.466,98.934 C239.371,100.498 240.278,102.059 241.184,103.624 L241.206,103.663 C236.112,106.827 231.697,110.969 228.214,115.849 C226.999,117.551 225.904,119.336 224.938,121.191 C223.27,124.387 221.994,127.772 221.137,131.274 C220.379,134.36 222.881,137.133 226.061,137.133 L303.931,137.133 C307.11,137.133 309.621,134.358 308.864,131.268 L308.865,131.269 Z" />
            <path d="M246.544,124.122 C248.224,121.579 247.922,118.425 245.871,117.035 C243.821,115.678 240.831,116.627 239.149,119.138 C237.47,121.681 237.772,124.835 239.822,126.226 C241.872,127.582 244.864,126.633 246.544,124.122 Z M282.98,124.164 C281.3,121.62 281.602,118.466 283.653,117.075 C285.702,115.719 288.694,116.669 290.375,119.178 C292.055,121.722 291.753,124.876 289.702,126.267 C287.652,127.623 284.661,126.674 282.98,124.164 Z" />
        </g>
        <g id="Regular-S">
            <path d="M508.865,131.269 C508.008,127.767 506.732,124.382 505.064,121.186 C502.417,116.106 498.826,111.576 494.484,107.839 C492.722,106.32 490.846,104.939 488.872,103.709 C488.89,103.681 488.906,103.651 488.923,103.621 C489.828,102.058 490.736,100.497 491.641,98.932 L496.207,91.061 C496.751,90.121 496.902,89.005 496.629,87.954 C496.356,86.903 495.681,86.002 494.748,85.446 C493.985,84.995 493.097,84.799 492.215,84.888 C491.567,84.954 490.944,85.173 490.397,85.526 C489.851,85.88 489.395,86.357 489.069,86.921 L484.504,94.791 C483.599,96.355 482.691,97.916 481.785,99.481 L481.487,99.994 C481.35,99.94 481.214,99.885 481.076,99.833 C475.942,97.88 470.494,96.882 465.001,96.889 C464.846,96.889 464.692,96.889 464.537,96.891 C459.638,96.935 454.778,97.778 450.151,99.386 C449.627,99.568 449.112,99.761 448.6,99.962 L448.321,99.483 C447.416,97.92 446.508,96.358 445.603,94.794 C444.081,92.17 442.559,89.546 441.037,86.923 C440.644,86.246 440.067,85.694 439.372,85.333 C438.677,84.972 437.894,84.817 437.114,84.885 C436.494,84.937 435.893,85.13 435.358,85.449 C434.431,85.999 433.757,86.891 433.481,87.933 C433.2,88.99 433.351,90.117 433.9,91.063 L438.466,98.934 C439.371,100.498 440.278,102.059 441.184,103.624 L441.206,103.663 C436.112,106.827 431.697,110.969 428.214,115.849 C426.999,117.551 425.904,119.336 424.938,121.191 C423.27,124.387 421.994,127.772 421.137,131.274 C420.379,134.36 422.881,137.133 426.061,137.133 L503.931,137.133 C507.11,137.133 509.621,134.358 508.864,131.268 L508.865,131.269 Z" />
            <path d="M446.544,124.122 C448.224,121.579 447.922,118.425 445.871,117.035 C443.821,115.678 440.831,116.627 439.149,119.138 C437.47,121.681 437.772,124.835 439.822,126.226 C441.872,127.582 444.864,126.633 446.544,124.122 Z M482.98,124.164 C481.3,121.62 481.602,118.466 483.653,117.075 C485.702,115.719 488.694,116.669 490.375,119.178 C492.055,121.722 491.753,124.876 489.702,126.267 C487.652,127.623 484.661,126.674 482.98,124.164 Z" />
        </g>
        <g id="Black-S">
            <path d="M708.865,131.269 C708.008,127.767 706.732,124.382 705.064,121.186 C702.417,116.106 698.826,111.576 694.484,107.839 C692.722,106.32 690.846,104.939 688.872,103.709 C688.89,103.681 688.906,103.651 688.923,103.621 C689.828,102.058 690.736,100.497 691.641,98.932 L696.207,91.061 C696.751,90.121 696.902,89.005 696.629,87.954 C696.356,86.903 695.681,86.002 694.748,85.446 C693.985,84.995 693.097,84.799 692.215,84.888 C691.567,84.954 690.944,85.173 690.397,85.526 C689.851,85.88 689.395,86.357 689.069,86.921 L684.504,94.791 C683.599,96.355 682.691,97.916 681.785,99.481 L681.487,99.994 C681.35,99.94 681.214,99.885 681.076,99.833 C675.942,97.88 670.494,96.882 665.001,96.889 C664.846,96.889 664.692,96.889 664.537,96.891 C659.638,96.935 654.778,97.778 650.151,99.386 C649.627,99.568 649.112,99.761 648.6,99.962 L648.321,99.483 C647.416,97.92 646.508,96.358 645.603,94.794 C644.081,92.17 642.559,89.546 641.037,86.923 C640.644,86.246 640.067,85.694 639.372,85.333 C638.677,84.972 637.894,84.817 637.114,84.885 C636.494,84.937 635.893,85.13 635.358,85.449 C634.431,85.999 633.757,86.891 633.481,87.933 C633.2,88.99 633.351,90.117 633.9,91.063 L638.466,98.934 C639.371,100.498 640.278,102.059 641.184,103.624 L641.206,103.663 C636.112,106.827 631.697,110.969 628.214,115.849 C626.999,117.551 625.904,119.336 624.938,121.191 C623.27,124.387 621.994,127.772 621.136,131.274 C620.379,134.36 622.881,137.133 626.061,137.133 L703.931,137.133 C707.11,137.133 709.621,134.358 708.864,131.268 L708.865,131.269 Z" />
            <path d="M646.544,124.122 C648.224,121.579 647.922,118.425 645.871,117.035 C643.821,115.678 640.831,116.627 639.149,119.138 C637.47,121.681 637.772,124.835 639.822,126.226 C641.872,127.582 644.864,126.633 646.544,124.122 Z M682.98,124.164 C681.3,121.62 681.602,118.466 683.652,117.075 C685.702,115.719 688.694,116.669 690.375,119.178 C692.055,121.722 691.753,124.876 689.702,126.267 C687.652,127.623 684.661,126.674 682.98,124.164 Z" />
        </g>
    </g>
</svg>